<svg xmlns="http://www.w3.org/2000/svg" width="750" height="750" viewBox="0 0 750 750"><path fill="#000" d="M227.5 123.5c22.344.334 44.678 1 66.5 2v55h61v67h-61v54c20.336-.167 40.669 0 61 .5.63 3.129 1.296 6.296 2 9.5 22.532-18.046 38.698-40.713 48.5-68 4.364-12.294 7.864-24.794 10.5-37.5h-53v-67h250c-3.423 48.664-6.923 97.331-10.5 146-.693 14.441-6.193 26.608-16.5 36.5-4.608 3.137-9.608 5.47-15 7-24.754 5.399-49.754 7.899-75 7.5-7.104-20.813-14.104-41.646-21-62.5 16.047-1.939 32.047-4.272 48-7 7.777-3.719 11.944-9.886 12.5-18.5 1.727-13.948 2.56-27.948 2.5-42h-60c-7.104 59.034-31.437 109.534-73 151.5h199v188H375.5v-188c6.342.166 12.675 0 19-.5-12.5-11.167-25-22.333-37.5-33.5-.5 15.004-.667 30.004-.5 45h-50v58h54v67h-54c-.651 24.063.016 47.896 2 71.5 18.819 3.678 37.819 5.678 57 6 93.219 2.172 186.219 1.339 279-2.5-5.527 23.109-11.527 46.109-18 69-65.639 2.701-131.306 3.534-197 2.5-28.333-.333-56.667-.667-85-1-18.084-.765-36.084-2.432-54-5-40.384-6.089-71.884-25.923-94.5-59.5-7.798 24.399-16.964 48.232-27.5 71.5-3.07-.015-6.07-.682-9-2-17.253-6.805-34.586-13.305-52-19.5 8.922-21.591 17.755-43.257 26.5-65 11.085-30.759 18.085-62.425 21-95 2.042-24.625 3.208-49.292 3.5-74 20.339.519 40.672 1.185 61 2 .73 29.279-.603 58.446-4 87.5 5.369 17.143 13.203 32.976 23.5 47.5.5-53.001.667-106.001.5-159h-104v-67h92v-54h-73v-67h73v-67h49zm215 296h95v63h-95v-63z"/></svg>
