<svg xmlns="http://www.w3.org/2000/svg" width="750" height="750" viewBox="0 0 750 750"><path fill="#000" d="M207.5 146.5h303c-.49 134.363 0 268.696 1.5 403 1.625 5.584 5.459 8.418 11.5 8.5h22c4.222-1.026 7.722-3.193 10.5-6.5 2.593-5.035 4.259-10.368 5-16 2.577-21.692 4.911-43.359 7-65 22.298 7.71 44.464 15.71 66.5 24-2.34 27.74-5.507 55.407-9.5 83-2.227 11.684-6.227 22.684-12 33-5.789 7.783-13.289 13.283-22.5 16.5-15.002 4.445-30.336 6.778-46 7-25.4 1.686-50.4-.647-75-7-21.408-8.941-32.908-25.107-34.5-48.5-1.286-55.648-1.953-111.315-2-167-14.052 16.546-27.885 33.212-41.5 50-33.788-39.965-69.621-78.298-107.5-115 .877 45.059-2.79 89.726-11 134-7.376 33.15-20.376 63.817-39 92-19.158 26.252-40.658 50.585-64.5 73-20.12-15.289-39.787-31.122-59-47.5 12.821-13.488 25.654-26.988 38.5-40.5 32.202-36.095 50.535-78.428 55-127 1.497-13.63 2.497-27.297 3-41 .5-80.999.667-161.999.5-243zm76 77h150c.167 57.668 0 115.334-.5 173-24.107-26.109-48.941-51.609-74.5-76.5-11.892-11.062-24.226-21.562-37-31.5-12.654 12.822-25.154 25.822-37.5 39-.5-34.665-.667-69.332-.5-104z"/></svg>
