<svg xmlns="http://www.w3.org/2000/svg" width="750" height="750" viewBox="0 0 750 750"><path fill="#000" d="M468.5 114.5c27.836 21 54.669 43.334 80.5 67 .52 1.789.187 3.456-1 5-9.167 13-18.333 26-27.5 39h89v67c-85.667-.167-171.334 0-257 .5-3.739 13.122-7.406 26.289-11 39.5h225v67c-.167 22.336-.334 44.669-.5 67-22.534 43.066-51.367 81.399-86.5 115 30.632 17.482 62.632 31.982 96 43.5 17.798 6.044 35.632 11.877 53.5 17.5-10.08 23.671-20.913 47.171-32.5 70.5-64.767-19.136-125.267-47.302-181.5-84.5-25.423 15.462-51.923 28.962-79.5 40.5-33.895 13.945-68.229 26.779-103 38.5-10.072-19.143-19.905-38.476-29.5-58-11.606 14.442-24.106 28.108-37.5 41-18.12-18.242-35.787-36.909-53-56 78.916-76.773 133.583-168.44 164-275.5h-118c-.167-21.003 0-42.003.5-63 9.712-30.182 17.546-60.849 23.5-92 23.015 3.558 46.015 7.225 69 11-5.231 25.696-11.897 51.029-20 76h62c6.078-32.8 10.744-65.8 14-99 23.7 2.754 47.366 5.754 71 9-3.907 30.014-7.907 60.014-12 90h129c-22.397-20.403-44.73-40.736-67-61 13.533-16.697 26.867-33.531 40-50.5zm-112 288h128c-17.218 27.89-38.718 52.056-64.5 72.5-25.387-20.872-46.554-45.205-63.5-73zm-143 170c33.119-38.866 61.286-81.2 84.5-127 .718-.951 1.551-.785 2.5-.15 15.813 25.66 34.48 49.16 56 70.5-45.691 23.898-93.357 42.898-143 57z"/></svg>
