<svg xmlns="http://www.w3.org/2000/svg" width="750" height="750" viewBox="0 0 750 750"><path fill="#000" d="M148.5 146.5h450c.167 139.667 0 279.334-.5 419-.123 12.652-2.123 24.986-6 37-5.627 12.959-15.127 21.792-28.5 26.5-13.325 4.532-26.991 7.532-41 9-13.988 1.61-27.988 3.11-42 4.5-1.667-.333-3.333-.667-5-1-7.467-22.207-14.467-44.54-21-67 21.514-1.557 42.847-4.39 64-8.5 7.005-3.685 10.839-9.519 11.5-17.5.667-10-.667-20-1.5-30-11.821 9.243-23.821 18.243-36 27-12.457-26.248-25.457-52.248-39-78-19.981 37.977-42.481 74.31-67.5 109-15.195-11.028-30.528-21.861-46-32.5-2.755-1.711-5.089-3.878-7-6.5 10.167-15 20.333-30 30.5-45 3.26-4.862 5.926-9.862 8-15-14.414 9.791-28.914 19.457-43.5 29-7.031-14.065-13.531-28.398-19.5-43-17.692 34.902-37.525 68.402-59.5 100.5-.667.667-1.333.667-2 0-10.5-7.833-21-15.667-31.5-23.5-.5 33.001-.667 66.001-.5 99h-68V146.5zm237 143c3.7-12.601 7.7-25.101 12-37.5-18.961-7.265-37.961-14.432-57-21.5-7.141 20.294-14.307 40.627-21.5 61-3.48 8.782-7.147 17.449-11 26-12.912-24.825-26.079-49.492-39.5-74-17.084 9.957-33.917 20.29-50.5 31-.667 1 .333 2 1 2 20.222 37.11 39.389 74.777 57.5 113-17.71 35.763-37.21 70.429-58.5 104-.5-93.333-.667-186.666-.5-280h314c.333 15.348 0 30.681-1 46-16.322-5.997-32.656-11.997-49-18-8.804 26.58-18.304 52.913-28.5 79-10.329-18.663-21.163-37.996-32.5-56-11.362 7.677-22.695 15.343-34 23zm154-2c1.165 61.165 1.332 122.499.5 184-12.783-26.067-25.95-51.901-39.5-77.5 15.272-34.647 28.272-70.147 39-106.5zm-154 28c15.273 26.371 29.94 53.204 44 80.5-11.715 22.605-24.048 44.771-37 66.5-12.589-24.178-24.922-48.511-37-73 10.594-24.455 20.594-49.122 30-73z"/></svg>
